<?xml version="1.0" encoding="utf-8"?>
<!-- Generator: Adobe Illustrator 17.0.0, SVG Export Plug-In . SVG Version: 6.00 Build 0)  -->
<!DOCTYPE svg PUBLIC "-//W3C//DTD SVG 1.1//EN" "http://www.w3.org/Graphics/SVG/1.1/DTD/svg11.dtd">
<svg version="1.1" id="Capa_1" xmlns="http://www.w3.org/2000/svg" xmlns:xlink="http://www.w3.org/1999/xlink" x="0px" y="0px"
	 width="60px" height="60px" viewBox="0 0 60 60" enable-background="new 0 0 60 60" xml:space="preserve">
<g>
	<path fill="#FFFFFF" d="M29.279,59.716c-2.235-2.026-6.793-9.302-7.581-21.056c-0.73-10.884-0.09-18.22,0.097-19.578
		c0.14-1.013,0.43-2.724,2.554-3.906c4.719-2.625,3.513,3.742,3.513,3.742s-1.897,9.269-1.297,21.382s3.359,18.937,3.359,18.937
		s0.194,0.511,0.018,0.62C29.633,60.046,29.279,59.716,29.279,59.716z"/>
	<path fill="#FFFFFF" d="M18.994,24.693c-0.485-0.804-1.884-0.144-3.623-1.304c-3.284-2.19-3.638-6.996-2.838-9.475
		c0,0,2.199-7.076,9.874-9.395s12.385,2.165,13.472,4.078c1.659,2.918,2.822,9.971-1.083,15.717
		c-0.736,1.083,0.523,1.913,0.523,1.913s0.615,0.445,1.349,0.205c0.714-0.233,3.088-1.694,5.877-0.465
		c2.788,1.229,5.037,6.027,3.238,12.113c-1.799,6.087-4.765,9.727-9.023,13.625c0,0-0.545,0.524-0.172,1.037
		c0.24,0.33,0.755,0.092,0.755,0.092c5.844-2.552,10.089-8.338,12.488-12.815s3.678-11.673-0.64-16.071s-8.475-2.279-8.475-2.279
		c5.757-7.716,0-15.551,0-15.551s-4.398-7.316-15.951-5.837C11.986,1.918,8.86,12.161,8.294,14.329
		c-0.62,2.374-0.872,9.807,4.038,12.698C15.93,29.146,20.413,27.046,18.994,24.693z"/>
</g>
</svg>
