<?xml version="1.0" encoding="utf-8"?>
<!-- Generator: Adobe Illustrator 17.0.0, SVG Export Plug-In . SVG Version: 6.00 Build 0)  -->
<!DOCTYPE svg PUBLIC "-//W3C//DTD SVG 1.1//EN" "http://www.w3.org/Graphics/SVG/1.1/DTD/svg11.dtd">
<svg version="1.1" id="Capa_1" xmlns="http://www.w3.org/2000/svg" xmlns:xlink="http://www.w3.org/1999/xlink" x="0px" y="0px"
	 width="34.943px" height="17.506px" viewBox="0 0 34.943 17.506" enable-background="new 0 0 34.943 17.506" xml:space="preserve">
<g>
	<path fill="#FFFFFF" d="M4.241,13.034c-0.137-2.762,0.296-4.875,0.296-4.875s0.275-1.452-0.801-0.853
		c-0.484,0.269-0.55,0.66-0.582,0.891c-0.043,0.31-0.189,1.982-0.022,4.464c0.18,2.68,1.219,4.339,1.729,4.801
		c0,0,0.081,0.075,0.151,0.032c0.04-0.025-0.004-0.141-0.004-0.141S4.378,15.796,4.241,13.034z"/>
	<path fill="#FFFFFF" d="M7.468,8.786c1.313-1.759,0-3.546,0-3.546S6.465,3.572,3.831,3.909C0.917,4.282,0.204,6.618,0.075,7.112
		c-0.141,0.541-0.199,2.236,0.921,2.895c0.82,0.483,1.843,0.004,1.519-0.532c-0.111-0.183-0.43-0.033-0.826-0.297
		C0.94,8.679,0.859,7.583,1.041,7.018c0,0,0.501-1.613,2.251-2.142c1.75-0.529,2.824,0.494,3.072,0.93
		c0.378,0.665,0.643,2.274-0.247,3.584C5.95,9.636,6.237,9.825,6.237,9.825s0.14,0.101,0.308,0.047
		c0.163-0.053,0.704-0.386,1.34-0.106c0.636,0.28,1.149,1.374,0.738,2.762c-0.41,1.388-1.087,2.218-2.057,3.107
		c0,0-0.124,0.119-0.039,0.236c0.055,0.075,0.172,0.021,0.172,0.021c1.332-0.582,2.3-1.901,2.847-2.922
		c0.547-1.021,0.839-2.662-0.146-3.664S7.468,8.786,7.468,8.786z"/>
	<path fill="#FFFFFF" d="M34.811,6.587c-0.116-0.009-0.15,0.073-0.278,0.308c-0.097,0.178-0.253,0.328-0.439,0.428
		c0.015-0.379-0.028-0.748-0.13-1.07c-0.446-1.409-1.404-1.706-1.809-1.546c-0.691,0.273-0.68,1.311-0.487,1.976
		c0.266,0.918,0.934,1.252,1.467,1.356c-0.214,0.626-0.615,1.066-0.98,1.087c-0.605,0.035-1.21-0.657-1.441-1.704
		c-0.323-1.462,0.478-2.619,0.478-2.619s0.121-0.146,0.016-0.23c-0.105-0.083-0.275,0.033-0.275,0.033
		c-1.194,0.948-1.33,2.251-1.261,3.08c0.007,0.085,0.022,0.181,0.043,0.285l0,0c0,0,0.093,1.02-0.646,1.111
		c-0.479,0.059-0.848-0.523-0.957-2.447c-0.072-1.264,0.023-2.427,0.209-3.542l1.145-0.097c0,0,1.422-0.101,1.832-0.627
		c0,0,0.085-0.12,0-0.198c-0.121-0.111-0.542,0.144-2.027,0.218c0,0-0.322,0.019-0.829,0.047c0.132-0.664,0.292-1.314,0.464-1.962
		c0,0,0.137-0.42-0.161-0.466c-0.424-0.065-0.544,0.359-0.544,0.359s-0.254,0.81-0.487,2.11c-0.175,0.01-0.359,0.02-0.55,0.03
		c-0.294,0.016-0.603,0.037-0.903,0.06c0.131-0.652,0.288-1.292,0.457-1.929c0,0,0.137-0.42-0.161-0.466
		c-0.424-0.065-0.544,0.359-0.544,0.359s-0.253,0.804-0.485,2.098c-0.576,0.052-0.998,0.097-0.998,0.097s-1.229,0.07-1.643,0.665
		c0,0-0.083,0.121,0.003,0.198c0.123,0.109,0.676-0.121,1.585-0.171l0.936-0.079c-0.142,0.951-0.255,2.089-0.262,3.324
		c-0.003,0.604,0.038,1.107,0.112,1.527l0,0c0,0,0.088,1.215-0.561,1.283c-0.707,0.074-0.816-0.591-0.816-0.591
		s-0.114-0.585,0.023-1.994c0,0,0.03-0.376-0.368-0.423c-0.275-0.037-0.431,0.232-0.431,0.232c-0.094,0.157-0.162,0.539-0.179,0.992
		l0,0c0,0,0,0.001,0,0.001c-0.002,0.056-0.004,0.113-0.004,0.171c-0.066,1.537-0.933,1.624-0.933,1.624
		c-0.256,0.041-0.512-0.087-0.698-0.285C21.111,9,20.89,8.446,20.987,7.637c0.097-0.81,0.37-1.42,0.863-1.724
		c0.493-0.304,1.037-0.063,1.037-0.063s0.16,0.06,0.25-0.054c0.081-0.102-0.035-0.231-0.035-0.231s-0.418-0.546-1.46-0.357
		c-0.989,0.18-1.628,1.475-1.691,2.861l0,0c0,0-0.193,2.12-1.636,2.211c-1.236,0.078-1.549-1.506-1.463-2.188
		c0.05-0.397,0.324-1.896,1.169-1.834c0,0,0.608,0.048,0.59,0.757c0,0,0.001,0.148,0.051,0.16c0.055,0.013,0.15,0.029,0.269-0.16
		c0.118-0.189,0.228-0.877-0.26-1.274c-0.488-0.397-1.34-0.474-2.279,0.716c-0.613,0.777-0.687,2.051-0.687,2.051
		c-0.001,0.013-0.002,0.027-0.002,0.041c-0.084,0.324-0.25,0.537-0.405,0.672c-0.05-0.304-0.137-0.59-0.259-0.839
		c-0.65-1.327-1.642-1.48-2.018-1.261c-0.464,0.271-0.608,1.285-0.189,2.027c0.432,0.765,0.962,1.097,1.663,1.06
		c-0.108,0.681-0.45,1.207-0.819,1.284c-0.594,0.124-1.294-0.471-1.677-1.472c-0.536-1.398,0.085-2.661,0.085-2.661
		s0.093-0.156-0.018-0.229c-0.12-0.079-0.267,0.073-0.267,0.073c-1.04,1.114-0.982,2.423-0.79,3.233
		c0.191,0.81,1.227,2.583,2.78,2.114c1.021-0.308,1.521-1.439,1.559-2.554c0.238-0.126,0.403-0.301,0.518-0.475
		c0.274,0.865,0.931,1.886,2.26,1.8c1.302-0.084,1.901-1.249,2.116-1.813c0.343,0.703,0.95,1.207,1.622,1.14
		c0.847-0.085,1.165-0.974,1.256-1.312c0.055,0.164,0.122,0.311,0.204,0.429c0.526,0.763,1.347,0.528,1.347,0.528
		s0.655-0.074,0.976-0.928c0.356,0.645,0.831,0.816,1.172,0.816c0.354,0,0.786-0.164,1.077-0.875c0.348,0.558,0.789,0.71,1.11,0.71
		c0.365,0,0.839-0.19,1.13-0.955l0,0c0.393,0.677,1.041,1.263,1.973,1.127c1.02-0.149,1.672-1.128,1.898-2.184
		c0.496-0.189,0.817-0.705,0.917-1.035C34.971,6.818,34.928,6.596,34.811,6.587z M13.718,9.017
		c-0.526-0.654-0.359-1.024-0.268-1.109c0.066-0.062,0.53-0.278,0.936,0.949c0.068,0.205,0.11,0.411,0.13,0.614
		C14.273,9.45,13.98,9.343,13.718,9.017z M26.883,9.246c-0.481,0.05-0.848-0.523-0.957-2.447c-0.071-1.256,0.022-2.412,0.206-3.521
		l1.472-0.124c-0.144,0.956-0.258,2.101-0.265,3.345c-0.004,0.718,0.056,1.295,0.158,1.757l0,0
		C27.497,8.255,27.672,9.164,26.883,9.246z M32.466,6.589c-0.306-0.768-0.104-0.997-0.004-1.041
		c0.083-0.036,0.565-0.197,0.785,1.077c0.047,0.271,0.052,0.539,0.024,0.792C32.957,7.326,32.658,7.071,32.466,6.589z"/>
</g>
<g>
	<g>
		<path fill="#FFFFFF" d="M8.408,15.909c0.023-0.012,0.049-0.024,0.079-0.037c0.029-0.013,0.06-0.025,0.092-0.038
			c0.032-0.012,0.063-0.024,0.093-0.035c0.03-0.011,0.057-0.021,0.081-0.029c0.106-0.037,0.203-0.053,0.288-0.05
			c0.086,0.003,0.161,0.024,0.226,0.06c0.065,0.037,0.12,0.088,0.167,0.154c0.046,0.066,0.084,0.142,0.114,0.23
			c0.027,0.08,0.043,0.16,0.047,0.241c0.005,0.081-0.007,0.158-0.035,0.232c-0.028,0.073-0.075,0.141-0.14,0.202
			C9.352,16.9,9.263,16.951,9.149,16.99c-0.018,0.006-0.042,0.014-0.072,0.023c-0.03,0.009-0.062,0.019-0.094,0.028
			c-0.033,0.01-0.064,0.019-0.094,0.027c-0.03,0.009-0.053,0.014-0.068,0.017C8.683,16.693,8.546,16.301,8.408,15.909z
			 M8.842,15.969c-0.025,0.009-0.05,0.018-0.076,0.028c-0.025,0.01-0.044,0.018-0.056,0.025c0.091,0.263,0.182,0.525,0.273,0.788
			c0.005,0,0.013-0.002,0.024-0.005c0.011-0.003,0.023-0.007,0.035-0.01c0.013-0.004,0.025-0.007,0.036-0.011
			c0.011-0.003,0.02-0.006,0.026-0.008c0.066-0.023,0.116-0.053,0.152-0.091c0.036-0.038,0.06-0.08,0.072-0.127
			c0.012-0.047,0.015-0.097,0.009-0.15c-0.007-0.053-0.019-0.106-0.037-0.159c-0.016-0.046-0.036-0.091-0.061-0.134
			c-0.025-0.043-0.056-0.079-0.093-0.108c-0.037-0.029-0.081-0.048-0.131-0.057C8.965,15.94,8.907,15.947,8.842,15.969z"/>
		<path fill="#FFFFFF" d="M9.778,15.443c0.286-0.095,0.429-0.141,0.716-0.233c0.026,0.083,0.04,0.124,0.066,0.207
			c-0.192,0.061-0.287,0.092-0.479,0.155c0.036,0.11,0.054,0.165,0.09,0.275c0.174-0.057,0.26-0.085,0.434-0.141
			c0.027,0.083,0.04,0.124,0.066,0.206c-0.173,0.056-0.26,0.084-0.433,0.14c0.038,0.116,0.057,0.173,0.095,0.289
			c0.193-0.063,0.289-0.094,0.483-0.156c0.026,0.083,0.04,0.124,0.066,0.207c-0.286,0.092-0.429,0.138-0.714,0.232
			C10.039,16.231,9.909,15.837,9.778,15.443z"/>
		<path fill="#FFFFFF" d="M12.068,16.022c-0.252,0.077-0.505,0.154-0.756,0.234c-0.124-0.396-0.249-0.791-0.373-1.187
			c0.095-0.03,0.142-0.045,0.237-0.074c0.102,0.327,0.203,0.654,0.305,0.981c0.209-0.065,0.314-0.097,0.524-0.161
			C12.031,15.898,12.043,15.939,12.068,16.022z"/>
		<path fill="#FFFFFF" d="M12.115,14.709c0.095-0.028,0.143-0.042,0.238-0.071c0.117,0.398,0.234,0.796,0.351,1.194
			c-0.094,0.028-0.141,0.042-0.235,0.069C12.352,15.504,12.234,15.106,12.115,14.709z"/>
		<path fill="#FFFFFF" d="M13.993,15.411c-0.03,0.036-0.071,0.068-0.125,0.095c-0.054,0.027-0.11,0.049-0.17,0.066
			c-0.072,0.02-0.144,0.028-0.215,0.025c-0.071-0.004-0.138-0.024-0.202-0.059c-0.063-0.035-0.121-0.089-0.173-0.159
			c-0.052-0.071-0.094-0.162-0.127-0.275c-0.034-0.117-0.046-0.22-0.035-0.309c0.01-0.089,0.035-0.165,0.074-0.228
			c0.039-0.064,0.088-0.115,0.147-0.155c0.059-0.04,0.121-0.068,0.187-0.087c0.07-0.02,0.13-0.032,0.181-0.036
			c0.051-0.004,0.094-0.005,0.129-0.001c0.003,0.085,0.005,0.127,0.008,0.212c-0.03-0.005-0.064-0.005-0.103-0.001
			c-0.038,0.004-0.083,0.014-0.136,0.029c-0.096,0.027-0.164,0.083-0.204,0.167c-0.039,0.084-0.039,0.197,0.002,0.338
			c0.018,0.062,0.04,0.116,0.069,0.163c0.028,0.047,0.062,0.084,0.1,0.112c0.038,0.028,0.081,0.046,0.129,0.054
			c0.048,0.008,0.099,0.005,0.154-0.011c0.052-0.014,0.094-0.032,0.127-0.052c0.033-0.02,0.06-0.042,0.082-0.065
			C13.932,15.305,13.953,15.34,13.993,15.411z"/>
		<path fill="#FFFFFF" d="M14.111,14.142c0.096-0.026,0.144-0.039,0.24-0.064c0.107,0.401,0.214,0.801,0.321,1.202
			c-0.095,0.025-0.142,0.038-0.236,0.063C14.327,14.943,14.219,14.543,14.111,14.142z"/>
		<path fill="#FFFFFF" d="M14.967,14.558c-0.052-0.201-0.048-0.367,0.014-0.499c0.062-0.132,0.177-0.219,0.344-0.262
			c0.088-0.022,0.168-0.027,0.241-0.013c0.073,0.013,0.138,0.042,0.195,0.087c0.057,0.044,0.106,0.103,0.146,0.174
			c0.04,0.072,0.072,0.155,0.095,0.249c0.05,0.201,0.043,0.367-0.02,0.498c-0.063,0.131-0.176,0.217-0.339,0.258
			c-0.088,0.022-0.167,0.027-0.24,0.014c-0.072-0.013-0.137-0.042-0.193-0.086c-0.056-0.044-0.105-0.102-0.146-0.173
			C15.024,14.735,14.991,14.652,14.967,14.558z M15.217,14.493c0.016,0.061,0.035,0.115,0.059,0.164
			c0.024,0.048,0.051,0.088,0.082,0.119c0.031,0.031,0.066,0.053,0.104,0.065c0.039,0.012,0.081,0.012,0.128,0.001
			c0.084-0.021,0.141-0.071,0.171-0.148c0.03-0.077,0.026-0.189-0.01-0.336c-0.015-0.059-0.033-0.112-0.056-0.16
			c-0.023-0.048-0.049-0.088-0.08-0.121c-0.031-0.033-0.065-0.055-0.105-0.068c-0.039-0.013-0.083-0.013-0.132,0
			c-0.085,0.022-0.143,0.072-0.172,0.151C15.176,14.239,15.18,14.35,15.217,14.493z"/>
		<path fill="#FFFFFF" d="M17.029,14.345c-0.009-0.037-0.029-0.064-0.062-0.08c-0.033-0.017-0.072-0.03-0.118-0.039
			c-0.046-0.009-0.095-0.018-0.149-0.027c-0.053-0.009-0.104-0.023-0.152-0.042c-0.048-0.019-0.092-0.048-0.13-0.085
			c-0.038-0.037-0.065-0.09-0.082-0.158c-0.014-0.059-0.017-0.112-0.007-0.16c0.009-0.048,0.029-0.091,0.059-0.129
			c0.03-0.038,0.069-0.069,0.116-0.095c0.047-0.026,0.102-0.046,0.164-0.061c0.072-0.017,0.141-0.027,0.207-0.029
			c0.066-0.003,0.123,0.003,0.169,0.016c-0.012,0.087-0.018,0.13-0.03,0.217c-0.03-0.01-0.072-0.016-0.126-0.017
			c-0.055-0.001-0.112,0.005-0.172,0.019c-0.056,0.013-0.097,0.034-0.121,0.063c-0.025,0.029-0.033,0.062-0.024,0.099
			c0.008,0.035,0.029,0.06,0.062,0.077c0.033,0.017,0.073,0.03,0.119,0.039c0.046,0.01,0.096,0.019,0.149,0.029
			c0.053,0.009,0.104,0.024,0.152,0.044c0.048,0.02,0.091,0.048,0.129,0.085c0.037,0.037,0.064,0.088,0.079,0.152
			c0.015,0.065,0.017,0.123,0.006,0.175c-0.011,0.052-0.032,0.098-0.063,0.138c-0.032,0.04-0.073,0.074-0.125,0.102
			c-0.051,0.028-0.11,0.05-0.176,0.065c-0.087,0.021-0.165,0.031-0.235,0.03s-0.122-0.005-0.157-0.013
			c0.011-0.088,0.017-0.132,0.028-0.221c0.014,0.004,0.033,0.007,0.055,0.011c0.022,0.003,0.047,0.005,0.074,0.006
			c0.027,0.001,0.056,0,0.085-0.002c0.029-0.002,0.059-0.007,0.09-0.014c0.071-0.017,0.122-0.041,0.154-0.074
			C17.03,14.434,17.04,14.393,17.029,14.345z"/>
		<path fill="#FFFFFF" d="M18.305,14.117c-0.15,0.033-0.226,0.049-0.376,0.083c-0.013,0.116-0.02,0.174-0.032,0.29
			c-0.095,0.021-0.143,0.032-0.238,0.054c0.054-0.441,0.11-0.882,0.168-1.322c0.071-0.016,0.107-0.024,0.179-0.039
			c0.238,0.375,0.473,0.752,0.707,1.13c-0.101,0.021-0.151,0.032-0.251,0.054C18.399,14.266,18.367,14.216,18.305,14.117z
			 M17.948,13.995c0.105-0.023,0.158-0.035,0.263-0.058c-0.06-0.1-0.09-0.151-0.151-0.251c-0.032-0.073-0.047-0.11-0.079-0.183
			c-0.004,0.001-0.005,0.001-0.009,0.002c0.002,0.08,0.003,0.12,0.005,0.201C17.966,13.822,17.96,13.879,17.948,13.995z"/>
		<path fill="#FFFFFF" d="M19.904,13.409c-0.008-0.099-0.013-0.149-0.021-0.248c-0.004,0.001-0.006,0.001-0.011,0.002
			c-0.015,0.084-0.023,0.126-0.038,0.21c-0.07,0.203-0.104,0.304-0.172,0.507c-0.031,0.006-0.046,0.009-0.077,0.015
			c-0.147-0.161-0.22-0.241-0.368-0.401c-0.047-0.071-0.07-0.106-0.117-0.177c-0.004,0.001-0.005,0.001-0.009,0.002
			c0.034,0.093,0.051,0.14,0.085,0.233c0.052,0.254,0.078,0.38,0.13,0.634c-0.091,0.019-0.136,0.028-0.227,0.047
			c-0.084-0.406-0.169-0.812-0.253-1.218c0.089-0.018,0.133-0.028,0.222-0.046c0.178,0.196,0.267,0.294,0.444,0.49
			c0.034,0.051,0.052,0.077,0.086,0.128c0.003-0.001,0.004-0.001,0.007-0.001c0.01-0.061,0.015-0.092,0.024-0.153
			c0.081-0.247,0.122-0.37,0.204-0.616c0.088-0.017,0.132-0.026,0.22-0.043c0.078,0.407,0.157,0.815,0.235,1.222
			c-0.096,0.018-0.144,0.028-0.24,0.046C19.979,13.789,19.954,13.663,19.904,13.409z"/>
		<path fill="#FFFFFF" d="M20.514,12.683c0.296-0.055,0.443-0.082,0.74-0.134c0.015,0.085,0.023,0.128,0.038,0.214
			c-0.198,0.035-0.297,0.053-0.494,0.089c0.021,0.114,0.031,0.171,0.052,0.285c0.179-0.033,0.269-0.049,0.448-0.081
			c0.015,0.085,0.023,0.128,0.038,0.214c-0.179,0.032-0.268,0.048-0.447,0.08c0.022,0.12,0.033,0.179,0.055,0.299
			c0.199-0.036,0.299-0.054,0.498-0.089c0.015,0.085,0.023,0.128,0.038,0.214c-0.295,0.052-0.442,0.079-0.737,0.134
			C20.665,13.499,20.589,13.091,20.514,12.683z"/>
		<path fill="#FFFFFF" d="M22.12,13.005c-0.052-0.071-0.078-0.106-0.13-0.177c-0.004,0.001-0.005,0.001-0.009,0.001
			c0.024,0.075,0.036,0.113,0.061,0.188c0.043,0.256,0.064,0.384,0.107,0.64c-0.091,0.015-0.137,0.023-0.229,0.039
			c-0.07-0.412-0.141-0.824-0.211-1.235c0.071-0.012,0.107-0.018,0.179-0.03c0.194,0.191,0.387,0.383,0.58,0.576
			c0.05,0.069,0.075,0.104,0.124,0.173c0.004-0.001,0.005-0.001,0.009-0.001c-0.023-0.073-0.035-0.11-0.059-0.183
			c-0.042-0.258-0.063-0.387-0.104-0.646c0.093-0.015,0.139-0.022,0.232-0.037c0.065,0.413,0.131,0.825,0.196,1.238
			c-0.07,0.011-0.106,0.017-0.176,0.028C22.502,13.386,22.312,13.195,22.12,13.005z"/>
		<path fill="#FFFFFF" d="M24.076,12.321c-0.146,0.021-0.219,0.031-0.365,0.052c0.049,0.339,0.099,0.678,0.148,1.017
			c-0.097,0.014-0.145,0.021-0.242,0.036c-0.05-0.339-0.101-0.677-0.151-1.016c-0.147,0.022-0.22,0.033-0.366,0.055
			c-0.013-0.086-0.02-0.129-0.033-0.214c0.326-0.05,0.652-0.098,0.978-0.144C24.057,12.192,24.063,12.235,24.076,12.321z"/>
		<path fill="#FFFFFF" d="M24.442,12.051c0.298-0.041,0.447-0.06,0.745-0.098c0.011,0.086,0.016,0.129,0.027,0.215
			c-0.199,0.025-0.299,0.038-0.498,0.065c0.015,0.115,0.023,0.172,0.038,0.287c0.181-0.024,0.271-0.036,0.452-0.059
			c0.011,0.086,0.016,0.129,0.027,0.215c-0.18,0.023-0.27,0.035-0.45,0.059c0.016,0.121,0.024,0.181,0.04,0.301
			c0.201-0.027,0.301-0.04,0.502-0.065c0.011,0.086,0.016,0.129,0.027,0.215c-0.297,0.038-0.446,0.057-0.743,0.098
			C24.554,12.873,24.498,12.462,24.442,12.051z"/>
		<path fill="#FFFFFF" d="M26.374,11.811c0.299-0.033,0.448-0.05,0.748-0.08c0.009,0.086,0.013,0.129,0.022,0.216
			c-0.2,0.021-0.3,0.031-0.5,0.053c0.013,0.122,0.02,0.183,0.033,0.306c0.183-0.02,0.275-0.03,0.458-0.049
			c0.009,0.086,0.013,0.129,0.022,0.216c-0.183,0.019-0.274,0.029-0.457,0.049c0.022,0.2,0.033,0.3,0.054,0.5
			c-0.097,0.011-0.146,0.016-0.243,0.027C26.467,12.635,26.421,12.223,26.374,11.811z"/>
		<path fill="#FFFFFF" d="M27.562,11.699c0.027-0.007,0.057-0.015,0.088-0.022c0.031-0.007,0.063-0.013,0.095-0.019
			c0.032-0.005,0.062-0.01,0.092-0.014c0.03-0.004,0.058-0.007,0.083-0.01c0.059-0.005,0.118-0.006,0.176,0
			c0.058,0.005,0.111,0.019,0.158,0.041c0.047,0.022,0.087,0.055,0.118,0.098c0.031,0.043,0.049,0.099,0.055,0.167
			c0.009,0.102-0.008,0.186-0.05,0.254c-0.042,0.068-0.102,0.118-0.18,0.15c0.037,0.019,0.056,0.028,0.093,0.047
			c0.131,0.179,0.197,0.268,0.327,0.448c-0.112,0.01-0.169,0.015-0.281,0.025c-0.13-0.184-0.196-0.276-0.328-0.459
			c-0.052-0.004-0.079-0.007-0.131-0.011c0.019,0.203,0.029,0.305,0.048,0.508c-0.097,0.009-0.146,0.014-0.243,0.023
			C27.641,12.517,27.601,12.108,27.562,11.699z M27.958,11.849c-0.025,0.002-0.05,0.005-0.075,0.009
			c-0.024,0.003-0.043,0.008-0.056,0.012c0.014,0.144,0.02,0.216,0.034,0.359c0.042-0.004,0.062-0.006,0.104-0.01
			c0.068-0.006,0.121-0.027,0.159-0.061c0.038-0.034,0.054-0.087,0.047-0.158c-0.005-0.053-0.025-0.093-0.062-0.12
			C28.073,11.854,28.023,11.843,27.958,11.849z"/>
		<path fill="#FFFFFF" d="M28.918,11.566c0.3-0.024,0.45-0.036,0.75-0.057c0.006,0.087,0.009,0.13,0.015,0.216
			c-0.201,0.014-0.301,0.022-0.501,0.037c0.009,0.116,0.013,0.173,0.022,0.289c0.182-0.014,0.273-0.021,0.455-0.034
			c0.006,0.087,0.009,0.13,0.016,0.216c-0.181,0.013-0.272,0.02-0.454,0.034c0.009,0.121,0.014,0.182,0.023,0.303
			c0.202-0.016,0.303-0.023,0.505-0.038c0.006,0.087,0.009,0.13,0.015,0.216c-0.299,0.021-0.449,0.033-0.748,0.057
			C28.985,12.393,28.952,11.979,28.918,11.566z"/>
		<path fill="#FFFFFF" d="M30.734,12.352c-0.002-0.038-0.018-0.068-0.048-0.09c-0.03-0.022-0.066-0.041-0.11-0.058
			c-0.044-0.017-0.091-0.034-0.142-0.052c-0.051-0.018-0.099-0.04-0.143-0.068c-0.044-0.027-0.082-0.063-0.113-0.106
			c-0.031-0.043-0.049-0.099-0.054-0.169c-0.004-0.06,0.003-0.113,0.02-0.159c0.018-0.046,0.044-0.085,0.08-0.117
			c0.036-0.032,0.08-0.057,0.131-0.074c0.051-0.017,0.109-0.028,0.173-0.032c0.074-0.004,0.143-0.002,0.209,0.006
			c0.066,0.009,0.121,0.024,0.164,0.045c-0.027,0.083-0.04,0.125-0.066,0.209c-0.027-0.015-0.068-0.028-0.122-0.038
			c-0.054-0.01-0.111-0.014-0.173-0.01c-0.058,0.004-0.101,0.018-0.131,0.042c-0.029,0.024-0.043,0.056-0.04,0.093
			c0.002,0.035,0.018,0.064,0.048,0.086c0.03,0.022,0.066,0.042,0.11,0.059c0.044,0.017,0.091,0.035,0.142,0.054
			c0.051,0.018,0.099,0.041,0.143,0.069c0.044,0.028,0.082,0.063,0.112,0.106c0.031,0.043,0.048,0.097,0.051,0.164
			c0.004,0.066-0.004,0.124-0.024,0.173c-0.019,0.049-0.048,0.091-0.086,0.125c-0.038,0.034-0.085,0.061-0.14,0.079
			c-0.056,0.019-0.117,0.03-0.185,0.034c-0.089,0.005-0.168,0.002-0.237-0.01c-0.069-0.012-0.12-0.025-0.153-0.04
			c0.026-0.085,0.039-0.128,0.065-0.213c0.014,0.006,0.031,0.013,0.052,0.02c0.021,0.007,0.045,0.013,0.072,0.019
			c0.027,0.005,0.055,0.01,0.084,0.012c0.029,0.003,0.06,0.003,0.091,0.001c0.073-0.004,0.128-0.02,0.165-0.047
			C30.72,12.439,30.737,12.401,30.734,12.352z"/>
		<path fill="#FFFFFF" d="M32.273,12.559c-0.037,0.029-0.085,0.05-0.143,0.064c-0.058,0.014-0.119,0.023-0.18,0.025
			c-0.075,0.003-0.147-0.005-0.215-0.025c-0.068-0.02-0.129-0.054-0.183-0.103c-0.054-0.049-0.098-0.114-0.133-0.195
			c-0.035-0.081-0.055-0.18-0.061-0.297c-0.006-0.122,0.006-0.225,0.036-0.309c0.03-0.084,0.071-0.152,0.124-0.205
			c0.052-0.053,0.112-0.092,0.179-0.117c0.067-0.025,0.134-0.039,0.202-0.042c0.073-0.003,0.134-0.001,0.185,0.006
			c0.051,0.007,0.092,0.017,0.126,0.029c-0.016,0.083-0.024,0.125-0.041,0.208c-0.028-0.012-0.062-0.02-0.1-0.024
			c-0.038-0.004-0.085-0.005-0.139-0.003c-0.1,0.004-0.179,0.043-0.237,0.116c-0.058,0.073-0.083,0.183-0.076,0.33
			c0.003,0.064,0.013,0.122,0.03,0.174c0.017,0.052,0.041,0.096,0.072,0.132c0.031,0.036,0.069,0.063,0.113,0.082
			c0.045,0.019,0.095,0.027,0.153,0.024c0.054-0.002,0.099-0.01,0.135-0.022c0.037-0.012,0.068-0.027,0.095-0.045
			C32.238,12.442,32.25,12.481,32.273,12.559z"/>
		<path fill="#FFFFFF" d="M32.574,11.976c-0.007-0.207,0.033-0.369,0.122-0.484s0.221-0.176,0.394-0.181
			c0.091-0.003,0.171,0.011,0.239,0.04c0.069,0.029,0.126,0.071,0.172,0.127c0.046,0.056,0.081,0.123,0.104,0.202
			c0.024,0.079,0.036,0.167,0.039,0.264c0.005,0.207-0.038,0.368-0.128,0.482c-0.09,0.114-0.219,0.174-0.388,0.179
			c-0.091,0.003-0.17-0.01-0.237-0.039c-0.068-0.029-0.124-0.071-0.17-0.126c-0.046-0.055-0.08-0.122-0.105-0.201
			C32.592,12.161,32.578,12.073,32.574,11.976z M32.833,11.967c0.002,0.063,0.009,0.12,0.022,0.173
			c0.012,0.052,0.03,0.097,0.054,0.134c0.023,0.037,0.053,0.066,0.088,0.086c0.035,0.02,0.077,0.03,0.125,0.028
			c0.087-0.003,0.154-0.038,0.2-0.107c0.046-0.069,0.067-0.179,0.063-0.331c-0.002-0.06-0.008-0.117-0.02-0.168
			c-0.012-0.052-0.029-0.097-0.052-0.136c-0.023-0.039-0.052-0.068-0.088-0.089c-0.036-0.021-0.079-0.031-0.129-0.029
			c-0.088,0.003-0.155,0.039-0.201,0.11S32.829,11.819,32.833,11.967z"/>
	</g>
</g>
</svg>
